<?xml version="1.0" standalone="no"?>
<!DOCTYPE svg PUBLIC "-//W3C//DTD SVG 20010904//EN"
 "http://www.w3.org/TR/2001/REC-SVG-20010904/DTD/svg10.dtd">
<svg version="1.0" xmlns="http://www.w3.org/2000/svg"
 width="149.000000pt" height="338.000000pt" viewBox="0 0 149.000000 338.000000"
 preserveAspectRatio="xMidYMid meet">
<metadata>
Created by potrace 1.16, written by Peter Selinger 2001-2019
</metadata>
<g transform="translate(0.000000,338.000000) scale(0.100000,-0.100000)"
fill="#000000" stroke="none">
<path d="M810 3310 c27 -21 21 -26 -13 -9 -21 10 -21 10 -3 -5 11 -9 28 -16
38 -16 13 0 18 -8 18 -26 0 -14 -4 -23 -9 -20 -5 4 -7 -4 -3 -16 4 -15 2 -19
-7 -13 -10 6 -11 2 -6 -15 5 -15 4 -20 -4 -16 -6 4 -11 2 -11 -5 0 -8 -5 -7
-17 2 -15 13 -15 12 -2 -8 8 -14 16 -18 20 -12 4 7 9 8 13 1 9 -15 -20 -22
-33 -9 -9 9 -11 8 -6 -5 9 -22 8 -22 -46 -2 -24 9 -52 16 -63 16 -18 -1 -18
-1 0 14 18 14 18 15 -3 9 -32 -9 -37 11 -7 32 l27 20 -31 0 c-25 0 -34 -7 -52
-39 -12 -22 -29 -38 -39 -38 -33 0 -81 -22 -81 -37 0 -8 14 -27 31 -42 23 -22
29 -34 24 -50 -5 -15 -2 -21 9 -21 9 0 16 -8 16 -19 0 -11 3 -26 6 -35 5 -13
-1 -16 -27 -16 -43 0 -28 -13 23 -19 8 -1 28 -56 38 -105 8 -42 4 -69 -11 -60
-12 7 -48 -13 -81 -44 -23 -21 -26 -28 -15 -41 11 -14 10 -14 -5 -2 -15 11
-21 11 -33 1 -17 -14 -20 -37 -4 -42 6 -2 7 -12 1 -27 -7 -21 -10 -22 -15 -7
-4 10 -5 22 -1 27 3 5 0 9 -6 9 -6 0 -8 5 -4 12 4 7 3 8 -4 4 -14 -8 -16 -96
-3 -96 14 0 20 -25 11 -41 -7 -10 -12 -6 -21 16 -7 17 -11 39 -10 50 6 57 -47
-78 -89 -228 -18 -62 -19 -81 -9 -93 6 -8 9 -17 5 -21 -3 -3 -6 -1 -6 5 0 7
-4 12 -8 12 -12 0 -29 -79 -52 -243 -18 -122 -18 -142 -6 -172 8 -19 23 -39
34 -46 17 -10 18 -17 9 -62 -9 -46 -9 -52 12 -68 22 -18 22 -20 6 -62 -9 -23
-17 -59 -18 -79 -1 -20 -5 -34 -9 -31 -5 2 -8 -4 -8 -15 0 -10 -11 -52 -25
-93 -39 -112 -34 -174 15 -217 11 -10 11 -11 1 -6 -11 5 -12 1 -7 -22 3 -16
11 -76 16 -134 5 -58 18 -150 30 -205 11 -55 23 -151 27 -214 6 -109 5 -114
-12 -107 -11 4 -38 10 -61 13 -44 6 -63 -7 -39 -27 7 -6 11 -18 8 -26 -4 -10
2 -17 16 -21 31 -8 26 -20 -14 -27 -37 -7 -48 -31 -18 -40 25 -7 284 0 305 9
10 4 14 13 11 22 -4 11 -15 13 -42 9 -29 -5 -33 -4 -18 5 11 6 29 9 42 7 20
-4 23 -1 23 26 0 17 3 43 7 59 6 21 4 27 -9 27 -10 0 -19 11 -23 31 -4 20 -8
26 -14 18 -5 -9 -10 -5 -14 14 -4 15 -11 27 -15 27 -4 0 -10 9 -13 21 -4 16 0
23 14 26 32 9 16 52 -36 97 -25 21 -45 42 -45 48 0 5 4 7 8 4 17 -11 5 81 -17
123 -18 34 -20 43 -7 38 22 -9 30 10 27 65 -2 41 0 48 16 48 12 0 14 -3 6 -8
-15 -9 10 -129 33 -158 13 -17 13 -15 0 17 -18 46 -31 130 -17 110 7 -11 10
-7 14 20 l4 34 1 -32 c1 -18 6 -33 11 -33 4 0 4 19 -1 43 -14 65 -21 153 -12
144 4 -4 7 -27 6 -50 -3 -66 17 -10 22 63 3 32 11 71 20 88 8 16 12 32 9 36
-4 3 -1 6 5 6 7 0 12 5 12 10 0 6 15 27 34 46 33 34 34 34 40 11 3 -12 8 -50
12 -82 4 -33 10 -67 15 -75 12 -22 11 -4 -6 92 -23 136 -9 169 48 109 21 -22
46 -43 57 -46 26 -8 33 -36 35 -125 1 -45 7 -85 15 -100 17 -29 18 -206 3
-305 -5 -33 -7 -96 -4 -140 4 -44 2 -124 -4 -179 -6 -54 -10 -115 -8 -135 5
-56 -12 -73 -66 -60 -24 5 -59 10 -77 11 -18 1 -31 5 -29 9 3 4 2 16 -3 28 -5
15 -11 18 -22 11 -8 -5 -10 -10 -4 -10 6 0 11 -6 11 -14 0 -8 -7 -12 -16 -9
-11 3 -10 0 3 -11 11 -9 25 -16 30 -16 6 0 39 -12 73 -27 57 -26 61 -30 56
-55 -4 -23 -1 -28 21 -34 44 -11 90 4 131 43 31 29 39 44 40 74 0 21 8 46 17
56 9 11 18 47 22 93 4 41 13 106 21 144 9 42 12 91 8 127 -4 39 -2 59 5 59 6
0 13 -8 15 -17 3 -10 5 -2 6 18 0 20 8 43 17 50 11 9 15 24 11 50 l-5 36 47
-14 c56 -18 161 -12 196 11 13 9 38 16 54 16 16 0 33 5 37 11 4 8 9 7 15 -2 7
-11 9 -11 9 2 0 18 -238 253 -313 309 -47 36 -55 55 -22 55 10 0 22 9 26 20 4
11 8 16 8 12 1 -4 14 7 30 26 27 30 30 40 32 116 3 81 4 83 34 95 43 18 53 35
52 83 -1 37 -5 44 -31 55 -32 13 -37 15 -59 17 -7 0 -22 8 -33 17 -10 8 -14
13 -8 10 7 -3 14 1 18 9 3 8 10 15 16 15 6 0 9 -4 6 -9 -3 -4 6 -13 20 -20 35
-16 44 -13 14 4 -14 8 -21 14 -17 15 12 0 51 -21 60 -34 5 -6 6 14 3 44 -3 30
-8 91 -12 135 -6 76 -7 80 -30 81 -33 2 -52 20 -50 47 1 14 7 22 19 21 13 -2
15 1 7 11 -8 10 -7 14 2 17 8 3 18 -9 25 -31 12 -36 12 -36 7 14 -3 28 -13 85
-22 128 -14 68 -18 76 -29 61 -14 -19 -14 -17 -17 30 -1 11 -7 21 -15 24 -9 3
-11 0 -6 -8 6 -9 3 -9 -14 0 -26 14 -19 30 12 25 20 -4 21 -3 5 9 -10 7 -18
19 -18 26 0 7 -3 10 -7 7 -3 -4 -11 -3 -17 2 -7 6 -24 12 -38 15 -25 4 -26 3
-18 -20 5 -13 8 -24 7 -24 -1 0 -26 9 -55 20 -29 11 -66 20 -83 20 -29 0 -30
1 -23 35 6 32 4 35 -17 36 -21 0 -21 2 7 12 20 8 29 17 26 27 -2 8 3 5 13 -7
9 -13 22 -23 28 -23 7 0 29 -9 50 -20 42 -23 51 -25 42 -9 -4 6 2 5 13 -2 12
-7 18 -17 15 -23 -4 -5 1 -7 11 -3 10 4 24 -1 37 -14 11 -11 23 -18 28 -15 4
3 13 -11 20 -30 7 -20 15 -34 17 -31 4 3 -35 128 -69 220 -14 38 -95 103 -185
148 -61 30 -80 35 -92 26 -12 -10 -13 -10 -4 3 7 9 8 23 3 35 -14 37 -10 85
11 107 11 12 20 28 20 35 0 11 9 12 36 7 30 -5 35 -4 29 7 -8 12 -6 12 8 0 25
-20 23 6 -3 39 -11 14 -20 33 -20 42 0 9 -7 24 -16 32 -11 12 -14 28 -10 59
20 157 21 142 -12 166 -38 26 -56 28 -22 1z m60 -569 c3 -4 18 -11 35 -15 l30
-8 -40 -24 c-22 -13 -51 -27 -65 -31 -44 -11 -150 -98 -150 -123 0 -4 -6 -10
-14 -13 -22 -9 22 61 46 74 11 6 17 13 14 16 -3 3 -12 1 -19 -5 -7 -7 -30 -19
-51 -27 l-37 -16 4 28 c2 15 9 29 17 31 7 3 10 0 6 -7 -4 -6 -3 -11 3 -11 5 0
13 5 16 10 3 6 1 10 -4 10 -23 0 -9 18 53 68 72 59 93 67 51 20 -23 -26 -20
-24 10 5 32 30 45 36 65 32 14 -4 27 -10 30 -14z m-5 -767 l30 -25 -40 25
c-22 14 -48 26 -59 26 -11 0 4 -12 35 -28 37 -19 60 -25 72 -20 12 6 17 4 17
-6 0 -9 11 -18 25 -22 22 -6 26 -10 25 -29 -1 -9 28 -35 37 -34 19 3 33 -2 33
-12 0 -8 -6 -7 -17 2 -17 13 -17 13 -1 -11 9 -14 21 -24 27 -23 6 2 8 -4 5
-11 -4 -11 -17 -8 -61 15 -59 31 -79 36 -67 17 4 -7 3 -8 -4 -4 -7 4 -12 12
-12 18 0 14 -31 37 -50 37 -11 0 -10 -3 4 -14 11 -8 17 -17 14 -20 -2 -3 -13
4 -23 15 -10 11 -15 20 -10 20 4 0 -5 10 -21 23 -16 12 -32 21 -36 20 -5 -2
-8 1 -8 7 0 5 -6 7 -14 4 -9 -3 -15 4 -18 20 -12 62 50 67 117 10z m76 -334
c0 -10 2 -11 6 -2 3 8 11 5 24 -10 15 -18 19 -19 17 -6 -2 9 2 17 7 17 6 1 9
-9 7 -22 -1 -12 -4 -56 -7 -97 -3 -60 -2 -67 5 -35 5 22 7 48 4 57 -4 14 19
88 28 88 2 0 3 -13 4 -30 1 -16 -3 -27 -7 -24 -5 3 -9 3 -9 0 0 -2 -3 -12 -7
-22 -4 -10 -2 -15 4 -11 11 7 15 -96 6 -150 -6 -35 -22 -45 -24 -15 0 9 -3 12
-5 5 -3 -7 -18 1 -40 23 -19 20 -34 33 -34 30 0 -4 -14 9 -30 28 -17 18 -41
37 -55 40 -14 4 -25 14 -25 22 0 11 5 14 18 10 10 -4 5 5 -12 21 -16 15 -24
29 -18 31 6 2 8 10 5 19 -5 12 -3 14 7 8 10 -6 11 -2 6 20 -6 22 -4 26 8 22
11 -4 16 -1 16 11 0 13 2 14 9 3 7 -10 10 -10 13 -1 3 9 8 8 20 -4 22 -22 31
-20 23 5 -7 20 -6 20 14 2 12 -9 21 -24 22 -33z m-36 -218 c48 -47 70 -76 70
-93 0 -14 5 -23 13 -21 15 3 15 -3 1 -30 -7 -13 -7 -18 -1 -14 6 3 13 -4 15
-16 2 -13 3 -3 2 22 -1 27 -6 44 -13 43 -6 -2 -9 4 -5 12 7 19 4 21 148 -110
61 -55 134 -121 164 -147 55 -47 59 -68 15 -68 -14 0 -34 -5 -45 -11 -11 -6
-57 -12 -102 -15 -71 -4 -88 -1 -127 18 -46 24 -67 64 -50 97 19 38 41 111 35
121 -8 13 -30 13 -53 1 -9 -6 -30 -13 -47 -17 -27 -6 -28 -7 -10 -14 25 -10 8
-12 -33 -4 -27 6 -40 20 -42 46 -1 4 -8 27 -16 50 -8 24 -17 68 -20 98 -3 30
-8 59 -12 65 -3 5 1 4 10 -3 14 -11 16 -10 11 7 -9 33 13 24 59 -24 24 -25 48
-45 53 -45 7 0 7 3 0 8 -26 20 -108 112 -100 112 6 0 41 -31 80 -68z m-611 0
c-15 -24 -15 -25 -1 -14 9 8 19 22 22 32 3 11 12 17 20 14 8 -3 11 -13 8 -22
-4 -14 -3 -15 5 -2 16 21 64 2 73 -30 6 -22 7 -21 8 10 1 34 1 34 17 12 8 -12
20 -19 26 -16 7 5 8 2 2 -7 -14 -22 -13 -36 2 -36 8 0 14 7 14 16 1 14 2 13
11 -2 8 -13 5 -22 -13 -40 -13 -12 -24 -29 -26 -37 -2 -8 -8 -21 -13 -30 -9
-12 -9 -11 -5 5 5 18 4 17 -14 -4 -11 -12 -18 -27 -15 -31 8 -14 -33 -22 -68
-15 -60 13 -105 36 -110 56 -4 16 -3 18 8 9 11 -9 12 -7 8 9 -4 14 5 30 26 51
17 18 31 36 31 41 0 16 -9 10 -24 -18 l-15 -28 -1 36 c0 20 3 39 8 43 4 4 8
12 8 17 3 19 4 20 15 14 6 -5 4 -16 -7 -33z m601 -423 c4 -10 11 -19 17 -19 7
0 9 -19 6 -51 -5 -45 -2 -54 18 -72 20 -17 24 -30 24 -79 0 -45 -3 -58 -15
-58 -18 0 -19 -12 -4 -27 16 -16 3 -47 -16 -39 -19 7 -30 -11 -30 -49 0 -20
-6 -31 -17 -33 -14 -3 -18 3 -18 30 0 25 3 29 10 18 10 -15 10 -13 10 28 0 4
-8 7 -18 7 -11 0 -17 8 -17 25 -1 14 -4 31 -9 38 -7 11 -4 12 13 3 11 -7 21
-9 21 -6 0 12 -5 20 -12 18 -4 -2 -5 4 -2 12 4 8 14 15 23 16 11 0 9 3 -6 9
-13 5 -23 12 -23 16 0 3 6 4 14 1 9 -4 13 0 11 11 -2 9 -4 18 -5 20 -2 1 -3
10 -4 20 -1 9 -5 23 -9 30 -6 8 -2 12 10 12 14 0 15 2 4 9 -20 13 -6 42 16 35
13 -4 10 1 -7 15 -14 12 -19 20 -11 19 20 -4 22 34 4 55 -16 17 -16 17 0 12 9
-4 19 -15 22 -26z"/>
<path d="M1204 468 c-40 -35 -58 -70 -55 -108 1 -14 -4 -33 -12 -43 -12 -17
-13 -15 -13 18 0 20 -6 40 -13 44 -7 4 -14 17 -15 27 -2 13 -12 20 -34 22 -26
3 -33 -2 -46 -26 -15 -28 -14 -31 14 -68 23 -31 26 -42 17 -53 -10 -12 -9 -13
3 -6 9 5 12 5 7 -1 -5 -5 -13 -10 -18 -10 -5 -1 -14 -2 -20 -3 -5 0 -15 -14
-20 -30 -7 -20 -17 -29 -30 -28 -11 1 -18 6 -15 12 5 15 -56 6 -66 -9 -8 -12
-11 -13 -68 -15 -22 0 -40 -5 -40 -11 0 -5 7 -7 15 -4 9 4 15 0 15 -10 0 -10
-6 -13 -17 -10 -15 5 -16 4 -3 -5 26 -18 42 -13 36 12 -4 15 -1 13 10 -8 l15
-30 -6 28 c-5 23 -2 27 17 27 17 0 19 -3 9 -9 -7 -5 -10 -14 -7 -20 4 -6 12
-9 17 -6 5 4 15 3 22 -2 8 -5 0 -10 -23 -13 -51 -7 -110 0 -110 14 0 6 -8 12
-17 12 -10 1 -27 5 -37 9 -15 7 -17 5 -11 -6 5 -8 1 -7 -12 3 -22 20 -44 25
-25 6 20 -20 13 -31 -15 -23 -19 4 -25 3 -18 -4 6 -6 44 -13 85 -16 41 -4 98
-12 127 -20 38 -9 53 -10 57 -1 3 7 7 8 13 1 9 -11 43 -16 43 -6 0 9 83 7 98
-3 7 -4 12 -2 12 6 0 7 9 19 21 26 12 8 18 9 14 3 -3 -6 -4 -11 -1 -11 3 0 10
9 16 19 8 16 5 24 -14 43 -32 31 -41 31 -57 2 -7 -14 -21 -30 -31 -35 -10 -6
-16 -15 -12 -21 4 -6 1 -9 -7 -6 -8 2 -15 18 -16 34 -1 16 1 22 3 13 6 -21 44
-13 44 8 0 8 14 28 30 43 25 24 27 27 9 23 -19 -5 -20 -4 -8 15 13 21 15 21
56 -25 29 -32 40 -50 33 -57 -16 -16 -11 -30 6 -15 20 17 56 20 50 4 -2 -7 0
-18 5 -26 7 -12 10 -12 21 0 10 10 10 12 1 7 -8 -4 -13 -1 -13 8 0 9 8 16 18
16 22 0 72 22 72 33 0 7 -16 11 -33 8 -5 -1 -6 3 -2 9 3 5 0 11 -7 11 -7 1
-17 2 -23 4 -5 1 -19 3 -30 3 -24 2 -32 42 -9 42 17 0 56 -21 66 -35 4 -5 10
-6 14 -3 13 13 -40 67 -67 67 -16 1 -26 7 -26 16 0 19 30 19 67 0 16 -8 38
-16 48 -18 11 -2 26 -7 34 -13 7 -6 25 -15 39 -21 22 -9 29 -8 43 8 18 22 21
33 6 24 -5 -3 -10 -2 -10 2 0 5 -12 9 -27 8 -23 0 -29 5 -31 25 -2 20 -1 22 7
10 8 -11 11 -11 11 -2 0 7 4 11 9 7 5 -3 12 -1 15 4 8 13 -31 20 -43 8 -6 -6
-11 -19 -11 -30 0 -16 -2 -17 -15 -3 -18 17 -20 30 -3 20 7 -5 8 -3 3 5 -5 9
-12 7 -26 -8 -30 -32 -34 -25 -6 12 13 17 30 33 36 33 6 1 13 2 16 3 3 0 0 11
-6 23 l-12 22 -26 -31 c-14 -16 -34 -40 -45 -53 -14 -18 -20 -20 -27 -9 -5 8
-3 20 4 29 7 8 18 25 24 37 11 20 11 22 -5 16 -9 -3 -25 -13 -34 -21 -25 -21
-22 -5 7 46 28 50 19 54 -31 10z"/>
</g>
</svg>
